<svg width="140" height="50" xmlns="http://www.w3.org/2000/svg" xmlns:xlink="http://www.w3.org/1999/xlink"><defs><path id="a" d="M.02.069h35.363v48.278H.02z"/></defs><g fill="none" fill-rule="evenodd"><path fill="#333" d="M42.777 16.83V2.844h2.043v12.27h2.493V2.842h2.045v12.27h2.493V2.842h2.043V16.83H42.777M56.948 2.843h6.222v1.719h-4.178v4.276h3.818v1.718h-3.818v4.556h4.267v1.719h-6.31V2.843m15.16 3.017v7.813c.104.027.36.04.763.04 1.288 0 1.932-1.35 1.932-4.057 0-2.61-.592-3.915-1.775-3.915-.434 0-.74.04-.92.12Zm-1.865 7.753V5.801c-.21-.04-.464-.06-.763-.06-1.288 0-1.932 1.358-1.932 4.076 0 2.598.614 3.896 1.842 3.896.42 0 .704-.032.853-.1Zm-.067 1.68c-.314.066-.756.1-1.325.1-2.231 0-3.347-1.852-3.347-5.556 0-1.879.318-3.31.955-4.296.636-.986 1.53-1.479 2.684-1.479.464 0 .808.026 1.033.08V2.443h2.022v1.759c.284-.093.726-.14 1.324-.14 1.048 0 1.865.456 2.448 1.368.585.914.877 2.315.877 4.207 0 1.905-.326 3.341-.977 4.307-.652.965-1.509 1.448-2.572 1.448-.48 0-.846-.047-1.1-.14v1.98h-2.022v-1.939Zm17.361-6.674.27-2.36h-.112l-.652 2.258-2.246 5.357h-.696l-2.38-5.357-.675-2.277h-.09l.36 2.379v8.212h-1.954V2.843h1.976l2.763 6.274.427 1.759h.067L85 9.097l2.629-6.254h1.953V16.83h-2.044V8.619m7.412 3.015h2.448l-.9-3.915-.313-2.138h-.068l-.291 2.157-.877 3.896Zm2.785 1.58h-3.19l-.853 3.617h-2.044l3.795-14.148h1.506l3.818 14.148H98.61l-.875-3.617Zm7.142-8.792v5.614c.178.067.478.1.898.1 1.496 0 2.245-1.019 2.245-3.057 0-1.825-.703-2.737-2.111-2.737-.464 0-.808.027-1.032.08Zm-2.045-1.439c.854-.213 1.82-.32 2.898-.32.613 0 1.164.063 1.65.19.487.126.951.34 1.393.64.442.3.782.755 1.022 1.368.24.613.36 1.359.36 2.238 0 1.598-.386 2.784-1.157 3.557-.771.773-1.749 1.16-2.932 1.16-.613 0-1.01-.028-1.19-.08v5.095h-2.044V2.983Zm12.421 7.573h-.562v6.275h-2.044V2.843h2.044v6.395l.517-.26 2.897-6.135h2.313l-3.077 5.975-.786.68.83.778 3.505 6.555h-2.493l-3.144-6.275m7.995-7.713h6.221v1.719h-4.177v4.276h3.817v1.718h-3.817v4.556h4.266v1.719h-6.31V2.843m16.574 1.719h-3.099V16.83h-2.044V4.56h-3.099V2.844h8.242v1.719M46.22 25.977h-2.497v7.628h-.946v-8.41h3.443v.782m1.896 5.194c.094.51.265.937.513 1.281.247.343.56.516.938.516 1.07 0 1.607-1.19 1.607-3.567 0-1.048-.127-1.906-.378-2.57-.252-.665-.662-.999-1.23-.999-1.06 0-1.592 1.191-1.592 3.57 0 .67.047 1.262.142 1.77Zm-.5-5.038c.41-.72 1.06-1.08 1.95-1.08.937 0 1.6.368 1.993 1.105.39.738.586 1.817.586 3.243 0 1.457-.207 2.545-.62 3.267-.415.72-1.067 1.08-1.958 1.08-.927 0-1.586-.368-1.978-1.105-.391-.736-.587-1.819-.587-3.242 0-1.457.205-2.546.614-3.268Zm10.116-.156h-1.89v7.628h-.945v-7.628h-1.89v-.781h4.725v.781m1.977 5.194c.095.51.265.937.513 1.281.248.343.56.516.938.516 1.07 0 1.606-1.19 1.606-3.567 0-1.048-.125-1.906-.378-2.57-.252-.665-.661-.999-1.228-.999-1.062 0-1.593 1.191-1.593 3.57 0 .67.047 1.262.142 1.77Zm-.5-5.038c.41-.72 1.06-1.08 1.951-1.08.936 0 1.6.368 1.992 1.105.39.738.587 1.817.587 3.243 0 1.457-.208 2.545-.622 3.267-.413.72-1.067 1.08-1.957 1.08-.927 0-1.586-.368-1.978-1.105-.39-.736-.588-1.819-.588-3.242 0-1.457.206-2.546.616-3.268Zm9.104 6.344c.243-.298.364-.702.364-1.214 0-.61-.132-1.021-.398-1.237-.266-.217-.632-.324-1.1-.324h-.702v3.133c.135.057.422.084.864.084.405 0 .729-.146.972-.442Zm-1.404-3.52c.251 0 .477-.021.675-.06.27-.113.488-.309.655-.59.166-.28.25-.608.25-.984 0-.962-.393-1.442-1.175-1.442-.433 0-.712.021-.837.061v3.014h.432Zm2.268-.59a1.53 1.53 0 0 1-.877.793v.047c.899.209 1.349.879 1.349 2.007 0 .832-.216 1.456-.648 1.869-.431.413-1.008.617-1.728.617-.782 0-1.364-.052-1.741-.156V25.27a8.452 8.452 0 0 1 1.768-.167c.667 0 1.193.14 1.58.42.386.279.58.808.58 1.585 0 .456-.095.876-.283 1.26Zm5.964-.132.095-1.201h-.054l-.378 1.25-2.7 5.32h-.674v-8.408h.944v5.442l-.108 1.2h.04l.393-1.248 2.726-5.394h.662v8.409h-.946v-5.37m7.139-2.258h-1.889v7.628h-.945v-7.628h-1.889v-.781h4.724v.781m4.574 4.986c0-.664-.123-1.135-.37-1.413-.247-.276-.6-.414-1.06-.414-.315 0-.553.036-.716.109v3.603c.163.05.401.07.716.07.954 0 1.43-.65 1.43-1.955Zm-3.09-5.767h.944v3.267c.262-.072.563-.108.906-.108 1.475 0 2.213.841 2.213 2.523 0 .969-.204 1.682-.614 2.137-.41.456-1.033.685-1.87.685-.611 0-1.138-.052-1.58-.156v-8.348Zm11.58.781h-1.607c-.117 3.468-.337 5.662-.661 6.583-.243.735-.626 1.104-1.148 1.104-.206 0-.4-.039-.58-.12l.122-.782a.526.526 0 0 0 .19.037c.232 0 .422-.208.565-.624.36-.994.563-3.318.608-6.98h3.455v8.41h-.944v-7.628m2.954-.781h3.497v.781h-2.551v2.92h2.334v.78h-2.334v3.147h2.605v.78H98.3v-8.408m8.84.781h-2.497v7.628h-.946v-8.41h3.443v.782m2.524 3.737h-.365v3.89h-.946v-8.408h.946v3.917l.35-.168 1.918-3.75h1.08l-1.957 3.63-.419.382.472.482 2.174 3.916h-1.161l-2.092-3.891m5.606 1.457c.095.51.267.937.514 1.281.247.343.56.516.938.516 1.07 0 1.606-1.19 1.606-3.567 0-1.048-.125-1.906-.378-2.57-.251-.665-.66-.999-1.228-.999-1.062 0-1.593 1.191-1.593 3.57 0 .67.048 1.262.142 1.77Zm-.498-5.038c.409-.72 1.059-1.08 1.95-1.08.936 0 1.6.368 1.991 1.105.39.738.588 1.817.588 3.243 0 1.457-.207 2.545-.622 3.267-.414.72-1.067 1.08-1.957 1.08-.927 0-1.586-.368-1.977-1.105-.392-.736-.588-1.819-.588-3.242 0-1.457.204-2.546.615-3.268Zm-68.644 21.99c-.265.236-.676.352-1.235.352-1.411 0-2.116-1.152-2.116-3.458 0-1.204.195-2.083.586-2.636.39-.55.904-.825 1.54-.825.451 0 .842.076 1.171.228l-.173.515c-.263-.146-.579-.217-.943-.217-.459 0-.83.232-1.112.696-.283.465-.425 1.21-.425 2.239 0 .973.14 1.707.419 2.197.28.493.682.736 1.203.736.323 0 .634-.102.935-.305l.15.478m5.674-2.792c-.33.847-.692 1.563-1.086 2.142l-.355.422v.027l.463-.068h1.567v.508H49.59v-.259c.465-.611.93-1.399 1.395-2.367.466-.964.7-1.824.7-2.575 0-.342-.078-.614-.23-.808-.156-.195-.372-.29-.651-.29-.301 0-.592.087-.87.266l-.215-.401c.314-.25.723-.372 1.224-.372.444 0 .78.137 1.01.41.228.274.342.636.342 1.09 0 .668-.164 1.428-.492 2.275m3.888 2.638c.343 0 .591-.233.745-.7.154-.465.232-1.216.232-2.252 0-1.008-.078-1.754-.232-2.235-.154-.482-.412-.72-.778-.72-.344 0-.597.232-.757.694-.161.46-.242 1.214-.242 2.26 0 1.968.344 2.953 1.032 2.953Zm-1.246-5.622c.265-.528.669-.791 1.213-.791.573 0 .986.26 1.24.783.255.522.382 1.414.382 2.678 0 1.256-.133 2.146-.398 2.67-.264.525-.663.788-1.191.788-.588 0-1.009-.257-1.263-.774-.254-.514-.381-1.41-.381-2.684 0-1.252.132-2.14.398-2.67Zm4.748 5.507h.977v-4.875l.075-.543-.29.43-.719.61-.376-.344 1.61-1.576h.312v6.298h.945v.508h-2.534v-.508m6.435-2.523c-.33.847-.691 1.563-1.086 2.142l-.353.422v.027l.461-.068h1.568v.508h-2.802v-.259c.465-.611.931-1.399 1.396-2.367.465-.964.697-1.824.697-2.575 0-.342-.077-.614-.23-.808-.154-.195-.37-.29-.65-.29-.301 0-.59.087-.87.266l-.215-.401c.315-.25.723-.372 1.225-.372.443 0 .78.137 1.009.41.23.274.344.636.344 1.09 0 .668-.165 1.428-.494 2.275m7.433-3.136h-2.018v6.167h-.634v-6.693h2.652v.526m1.403 4.268c.083.425.23.778.44 1.063.212.283.475.424.79.424.91 0 1.364-.977 1.364-2.933 0-.856-.11-1.56-.328-2.11-.218-.551-.564-.825-1.036-.825-.902 0-1.353.977-1.353 2.935 0 .54.042 1.024.123 1.446Zm-.29-4.048c.318-.572.826-.86 1.52-.86.731 0 1.248.292 1.552.873.303.586.456 1.447.456 2.589 0 1.165-.159 2.032-.478 2.604-.318.571-.83.854-1.53.854-.723 0-1.237-.29-1.541-.878-.304-.587-.456-1.447-.456-2.58 0-1.162.158-2.028.478-2.602Zm7.44 5.422v-5.642h-1.418c-.05 2.684-.261 4.562-.633 5.642h2.051Zm1.277 1.767h-.45l-.098-1.242h-3.382l-.108 1.242h-.45v-1.767h.515c.072-.142.154-.405.247-.795.093-.387.19-1.075.29-2.06.1-.984.15-2.09.15-3.313h2.642v6.168h.644v1.767Zm2.053-3.738h1.408l-.538-2.189-.16-.994h-.023l-.16 1.013-.527 2.17Zm1.558.526h-1.718l-.494 1.97h-.634l1.836-6.806h.332l1.848 6.806h-.666l-.504-1.97Z"/><mask id="b" fill="#fff"><use xlink:href="#a"/></mask><path d="M8.995 30.593a.475.475 0 0 0-.465.465c0 .248.215.466.465.466h6.53a.477.477 0 0 0 .466-.466.476.476 0 0 0-.465-.465H8.995" fill="#333" mask="url(#b)"/><path d="M33.363 5.308a7.06 7.06 0 0 0-1.455-1.13c-1.393-.816-2.973-1.229-4.694-1.229a9.614 9.614 0 0 0-2.891.428 8.714 8.714 0 0 0-.868-1.014C21.93.841 20.065.07 17.917.07c-2.153 0-4.017.772-5.543 2.294a7.948 7.948 0 0 0-.866 1.014 9.599 9.599 0 0 0-2.893-.428c-1.717 0-3.302.413-4.695 1.228A7.182 7.182 0 0 0 2.46 5.31C1.123 6.645.449 8.282.449 10.175c0 1.262.3 2.415.898 3.435.291.498.67.98 1.115 1.43.812.807 1.737 1.381 2.745 1.702.083.028.166.049.246.071.028.498.086 1.363.158 2.47l.103 1.607c.082 1.202.149 2.213.194 3a2.393 2.393 0 0 1-.631 1.795 2.425 2.425 0 0 1-1.72.823 2.416 2.416 0 0 1-1.802-.64 2.39 2.39 0 0 1-.823-1.718 2.404 2.404 0 0 1 .603-1.757 1.649 1.649 0 0 1 1.218-.55h.066c.416 0 .758.117 1.073.367.008.01.024.016.034.023a.487.487 0 0 0 .62-.09.502.502 0 0 0 .101-.35.511.511 0 0 0-.172-.31 2.59 2.59 0 0 0-1.656-.57h-.087a2.577 2.577 0 0 0-1.887.852 3.336 3.336 0 0 0-.839 2.441 3.328 3.328 0 0 0 1.125 2.357c.699.629 1.538.92 2.475.87.94-.051 1.733-.425 2.361-1.127a3.294 3.294 0 0 0 .87-2.472c-.046-.792-.112-1.8-.192-3.006-.041-.58-.075-1.111-.103-1.604a272.55 272.55 0 0 1-.147-2.254c.15.016.3.02.453.02 1.135 0 2.15-.325 3.032-.972.107-.083.207-.168.306-.263.517-.518.78-1.152.78-1.887a2.588 2.588 0 0 0-.78-1.885 2.593 2.593 0 0 0-1.886-.778c-.732 0-1.368.263-1.89.785a3.6 3.6 0 0 0-.78 1.214 3.792 3.792 0 0 0-.241 1.363l.008.255c0 .12.056.244.142.331a.46.46 0 0 0 .339.133.472.472 0 0 0 .443-.473v-.253a2.737 2.737 0 0 1 .606-1.758c.043-.05.092-.104.146-.16a1.66 1.66 0 0 1 1.227-.507c.482 0 .886.166 1.229.506a1.7 1.7 0 0 1 .467.829c.025.126.039.256.039.398 0 .486-.165.888-.504 1.223a2.168 2.168 0 0 1-.209.183c-.709.52-1.54.787-2.474.787-.29 0-.581-.025-.86-.077a4.9 4.9 0 0 1-.5-.129c-.865-.276-1.662-.772-2.369-1.474a6.432 6.432 0 0 1-.973-1.244c-.51-.871-.768-1.87-.768-2.962 0-1.638.585-3.053 1.741-4.209a6.31 6.31 0 0 1 1.27-.984C5.641 4.25 7.065 3.88 8.614 3.88c.831 0 1.63.104 2.374.313-.08.15-.155.301-.225.462-.495 1.123-.612 2.277-.353 3.434.033.128.071.26.133.423.29.732.802 1.266 1.526 1.587a2.81 2.81 0 0 0 2.198.038 2.787 2.787 0 0 0 1.587-1.524 2.79 2.79 0 0 0 .043-2.196 3.018 3.018 0 0 0-.133-.299c-.426-.83-1.093-1.452-1.987-1.842l-.432-.18a.489.489 0 0 0-.586.257.486.486 0 0 0 0 .364.478.478 0 0 0 .25.246l.402.168c.682.3 1.198.775 1.523 1.406.03.062.065.133.097.217a1.87 1.87 0 0 1-.03 1.486 1.857 1.857 0 0 1-1.074 1.031 1.875 1.875 0 0 1-1.483-.026c-.506-.222-.837-.564-1.032-1.069a2.491 2.491 0 0 1-.096-.295c-.21-.954-.11-1.915.298-2.854.135-.303.291-.586.466-.844.259-.399.58-.79.95-1.164C14.374 1.68 16.02 1 17.916 1c1.895 0 3.537.68 4.88 2.018.369.374.687.766.957 1.175.174.252.329.53.458.833.41.943.515 1.904.299 2.851a2.733 2.733 0 0 1-.09.297c-.197.5-.538.85-1.037 1.07a1.885 1.885 0 0 1-1.489.027 1.871 1.871 0 0 1-1.067-1.03 1.867 1.867 0 0 1-.034-1.48 2.995 2.995 0 0 1 1.614-1.626l.4-.167a.497.497 0 0 0 .26-.251.502.502 0 0 0 0-.36.487.487 0 0 0-.61-.253l-.416.174c-.888.392-1.551 1.01-1.972 1.835a2.577 2.577 0 0 0-.138.303c-.287.73-.273 1.47.041 2.196.318.725.85 1.239 1.587 1.525a2.802 2.802 0 0 0 2.198-.04 2.8 2.8 0 0 0 1.528-1.585c.052-.14.094-.279.131-.425.262-1.15.143-2.306-.353-3.432a4.95 4.95 0 0 0-.225-.462 8.77 8.77 0 0 1 2.375-.313c1.554 0 2.972.37 4.227 1.102.446.26.874.591 1.27.984 1.156 1.158 1.741 2.574 1.741 4.209 0 1.09-.257 2.088-.773 2.962a6.17 6.17 0 0 1-.969 1.24c-.704.706-1.502 1.202-2.373 1.478a4.928 4.928 0 0 1-.5.129c-.28.052-.558.077-.857.077-.932 0-1.765-.266-2.474-.79-.07-.05-.137-.11-.205-.174a1.661 1.661 0 0 1-.508-1.23 1.676 1.676 0 0 1 .508-1.224 1.657 1.657 0 0 1 1.225-.508c.486 0 .889.166 1.228.506.047.046.093.098.136.153.196.236.34.485.44.746.116.307.174.65.174 1.02 0 .249.22.465.466.465a.444.444 0 0 0 .325-.141.45.45 0 0 0 .14-.324 3.66 3.66 0 0 0-.24-1.35 3.546 3.546 0 0 0-.586-1.014 5.994 5.994 0 0 0-.198-.213 2.576 2.576 0 0 0-1.885-.778 2.58 2.58 0 0 0-1.88.778 2.591 2.591 0 0 0-.782 1.885c0 .734.261 1.368.782 1.889.106.1.208.19.311.264.87.644 1.884.969 3.023.969.154 0 .3-.004.45-.02-.027.464-.071 1.187-.142 2.256-.017.268-.042.555-.059.876l-.05.726c-.019.285-.034.562-.052.822-.032.442-.066.827-.097 1.19-.044.401-.133.79-.274 1.166-.028.074-.058.14-.08.192-.31.656-1.013 1.254-2.1 1.786-1.371.675-3.017 1.07-4.89 1.172-1.405.076-2.86.118-4.34.118-2.577 0-5.098-.125-7.484-.364a3.49 3.49 0 0 0-.482-.027c-1.05 0-1.957.373-2.703 1.115a3.657 3.657 0 0 0-1.083 2.178 20.652 20.652 0 0 0-.197 2.874c0 2.081.29 4.047.864 5.834a15.877 15.877 0 0 0 2.601 4.931c1.158 1.5 2.455 2.638 3.861 3.391a9.763 9.763 0 0 0 4.637 1.141 9.752 9.752 0 0 0 4.633-1.14c1.405-.754 2.703-1.892 3.86-3.387a16.016 16.016 0 0 0 2.604-4.936c.573-1.787.865-3.753.865-5.834 0-.112 0-.225-.003-.328v-.052a2.062 2.062 0 0 0-.622-1.454 2.104 2.104 0 0 0-1.513-.623h-8.007a2.23 2.23 0 0 0-1.614.664c-.436.44-.668.999-.668 1.617v5.193c0 .026-.006.032-.016.043-.023.023-.032.025-.052.025h-5.295a.99.99 0 0 0-.705.29.992.992 0 0 0-.258.916c.286 1.242.914 2.361 1.868 3.31 1.358 1.361 3.022 2.053 4.939 2.053.245 0 .465-.22.465-.467a.48.48 0 0 0-.465-.464c-1.663 0-3.106-.598-4.28-1.776-.83-.83-1.373-1.793-1.616-2.84-.002-.016-.005-.025-.005-.034 0-.024.005-.033.017-.043.012-.013.017-.015.04-.015h5.295c.269 0 .51-.099.703-.29a.97.97 0 0 0 .295-.708v-5.193c0-.376.129-.689.395-.95.27-.267.581-.4.974-.4h7.99c.34 0 .616.116.854.348.227.232.343.498.352.81v.368c0 3.972-1.1 7.404-3.27 10.198-2.143 2.769-4.755 4.17-7.76 4.17-3.009 0-5.62-1.401-7.764-4.17-2.171-2.794-3.27-6.228-3.27-10.198 0-.932.064-1.859.193-2.752a2.75 2.75 0 0 1 .815-1.643 2.814 2.814 0 0 1 2.046-.845c.139 0 .257.005.374.023 2.428.248 4.986.369 7.606.369 1.488 0 2.961-.038 4.376-.116 1.998-.111 3.766-.539 5.248-1.268 1.281-.622 2.129-1.371 2.536-2.23a4.8 4.8 0 0 0 .108-.261c.168-.438.276-.91.326-1.401.033-.367.066-.761.1-1.21.016-.262.037-.537.056-.826l.058-.86c.018-.263.033-.516.048-.746.084-1.272.134-2.039.153-2.47.083-.023.167-.044.25-.072 1.013-.32 1.938-.895 2.75-1.703.44-.443.815-.924 1.115-1.43.592-1.024.9-2.178.9-3.434 0-1.89-.677-3.527-2.02-4.867" fill="#333" mask="url(#b)"/></g></svg>